<svg width="800" height="800" viewBox="0 0 800 800" fill="none" xmlns="http://www.w3.org/2000/svg">
<rect width="800" height="800" fill="#EEEEEE"/>
<path d="M191.064 504.406C178.462 486.129 172.436 464.267 173.937 442.267V352.471C172.347 330.309 178.282 308.254 190.82 289.733C202.156 275.446 221.526 268.342 248.929 268.422C276.333 268.502 294.887 274.767 304.592 287.219C316.426 302.649 322.201 321.728 320.863 340.977V362.049H270.216V339.181C270.148 333.164 269.616 327.161 268.625 321.222C268.013 316.922 265.996 312.932 262.876 309.848C260.949 308.231 258.713 307.006 256.297 306.246C253.882 305.485 251.335 305.204 248.807 305.418C245.176 304.887 241.466 305.465 238.183 307.072C234.899 308.678 232.202 311.236 230.457 314.397C227.24 322.805 225.824 331.771 226.297 340.737V454.718C225.739 463.744 227.374 472.771 231.068 481.059C232.833 484.049 235.453 486.469 238.604 488.021C241.755 489.574 245.302 490.192 248.807 489.799C252.251 490.275 255.762 489.676 258.837 488.085C261.913 486.494 264.396 483.993 265.934 480.939C268.893 472.515 270.18 463.615 269.726 454.718V430.773H320.374V451.486C321.865 471.019 316.562 490.471 305.326 506.68C294.561 519.85 275.966 526.316 249.541 526.316C223.116 526.316 202.442 519.132 191.064 504.406Z" fill="#111111"/>
<path d="M386.671 273.684H445.279L494.737 521.053H446.021L437.242 466.396H396.192L386.3 520.699H336.842L386.671 273.684ZM431.801 435.298L416.222 335.88L400.767 435.298H431.801Z" fill="#111111"/>
<path d="M529.242 310.961H489.474V273.684H621.053V310.961H581.775V521.053H529.119L529.242 310.961Z" fill="#111111"/>
</svg>
